<svg width="28" height="22" viewBox="0 0 28 22" fill="none" xmlns="http://www.w3.org/2000/svg">
<path fill-rule="evenodd" clip-rule="evenodd" d="M1.05558 1.07954C1.73383 0.390151 2.65723 -0.0001831 3.62357 -0.0001831H21.5425C21.5425 -0.0001831 21.5425 -0.0001831 21.5425 -0.0001831C22.6467 -0.00023436 23.7174 0.374781 24.5845 1.06233C25.4514 1.74965 26.0647 2.70923 26.3307 3.78686L27.7343 9.48019C27.7343 9.48028 27.7343 9.4801 27.7343 9.48019C28.0885 10.9155 28.0885 12.4175 27.7343 13.8528L26.8945 17.2404C26.7839 17.6865 26.3835 17.9998 25.9239 17.9998H1C0.447715 17.9998 0 17.5521 0 16.9998V3.66648C0 2.69923 0.377875 1.76838 1.05558 1.07954ZM25.1415 15.9998L25.7926 13.3735C26.0691 12.2529 26.0691 11.08 25.7926 9.95944L24.389 4.26611C24.3889 4.26603 24.389 4.2662 24.389 4.26611C24.228 3.61437 23.8582 3.03883 23.342 2.62949C22.8259 2.22035 22.1926 1.99978 21.5426 1.99982H3.62357C3.19828 1.99982 2.78705 2.17139 2.48127 2.48219C2.17495 2.79354 2 3.21925 2 3.66648V15.9998H25.1415Z" fill="black"/>
<path fill-rule="evenodd" clip-rule="evenodd" d="M6.90299 15.3331C5.65938 15.3331 4.62354 16.3623 4.62354 17.6664C4.62354 18.9705 5.65938 19.9997 6.90299 19.9997C8.14661 19.9997 9.18245 18.9705 9.18245 17.6664C9.18245 16.3623 8.14661 15.3331 6.90299 15.3331ZM2.62354 17.6664C2.62354 15.2886 4.52422 13.3331 6.90299 13.3331C9.28177 13.3331 11.1825 15.2886 11.1825 17.6664C11.1825 20.0442 9.28177 21.9997 6.90299 21.9997C4.52422 21.9997 2.62354 20.0442 2.62354 17.6664Z" fill="black"/>
<path fill-rule="evenodd" clip-rule="evenodd" d="M20.0207 15.3331C18.7771 15.3331 17.7412 16.3623 17.7412 17.6664C17.7412 18.9705 18.7771 19.9997 20.0207 19.9997C21.2643 19.9997 22.3001 18.9705 22.3001 17.6664C22.3001 16.3623 21.2643 15.3331 20.0207 15.3331ZM15.7412 17.6664C15.7412 15.2886 17.6419 13.3331 20.0207 13.3331C22.3995 13.3331 24.3001 15.2886 24.3001 17.6664C24.3001 20.0442 22.3995 21.9997 20.0207 21.9997C17.6419 21.9997 15.7412 20.0442 15.7412 17.6664Z" fill="black"/>
</svg>
