<svg width="22" height="22" viewBox="0 0 22 22" fill="none" xmlns="http://www.w3.org/2000/svg">
<path fill-rule="evenodd" clip-rule="evenodd" d="M8.94363 0.808963C9.50134 0.288233 10.2373 0 11 0C11.7627 0 12.4987 0.288233 13.0564 0.808963M13.0564 0.808963L20.4293 7.69128C20.9244 8.15339 21.3197 8.7113 21.5901 9.33101C21.8604 9.95077 22.0001 10.619 22 11.2947V19.0246C22 19.8177 21.6809 20.5758 21.1169 21.1329C20.5534 21.6895 19.7917 22 19 22H3C2.20831 22 1.44659 21.6895 0.883062 21.1329C0.319111 20.5758 0 19.8177 0 19.0246V11.2948C-5.78165e-05 10.6191 0.139553 9.95077 0.409916 9.33101C0.68026 8.7113 1.07546 8.15349 1.57063 7.69138M8.94363 0.808963L1.57063 7.69138ZM11 2C10.7407 2 10.4935 2.09814 10.3085 2.27085L2.93537 9.1534C2.63904 9.42992 2.40362 9.76268 2.24308 10.1307C2.08255 10.4987 1.99996 10.8947 2 11.2946V19.0246C2 19.2792 2.10232 19.526 2.28851 19.7099C2.47512 19.8943 2.73082 20 3 20H19C19.2692 20 19.5249 19.8943 19.7115 19.7099C19.8977 19.526 20 19.2792 20 19.0246V11.2947C20 10.8948 19.9175 10.4987 19.7569 10.1307C19.5964 9.76268 19.3611 9.43003 19.0647 9.15351L11.6916 2.27098C11.5067 2.09827 11.2593 2 11 2Z" fill="black"/>
<path fill-rule="evenodd" clip-rule="evenodd" d="M13.0564 0.808963H8.94363L1.57063 7.69138C1.07546 8.15349 0.68026 8.7113 0.409916 9.33101C0.139553 9.95077 -5.78165e-05 10.6191 0 11.2948V19.0246C0 19.8177 0.319111 20.5758 0.883062 21.1329C1.44659 21.6895 2.20831 22 3 22H19C19.7917 22 20.5534 21.6895 21.1169 21.1329C21.6809 20.5758 22 19.8177 22 19.0246V11.2947C22.0001 10.619 21.8604 9.95077 21.5901 9.33101C21.3197 8.7113 20.9244 8.15339 20.4293 7.69128L13.0564 0.808963ZM11 2C10.7407 2 10.4935 2.09814 10.3085 2.27085L2.93537 9.1534C2.63904 9.42992 2.40362 9.76268 2.24308 10.1307C2.08255 10.4987 1.99996 10.8947 2 11.2946V19.0246C2 19.2792 2.10232 19.526 2.28851 19.7099C2.47512 19.8943 2.73082 20 3 20H19C19.2692 20 19.5249 19.8943 19.7115 19.7099C19.8977 19.526 20 19.2792 20 19.0246V11.2947C20 10.8948 19.9175 10.4987 19.7569 10.1307C19.5964 9.76268 19.3611 9.43003 19.0647 9.15351L11.6916 2.27098C11.5067 2.09827 11.2593 2 11 2Z" fill="black"/>
</svg>
