<svg width="1203" height="455" viewBox="0 0 1203 455" fill="none" xmlns="http://www.w3.org/2000/svg">
<path fill-rule="evenodd" clip-rule="evenodd" d="M1200.4 11.0861C1192.46 7.27475 1171.13 1.84578 1150.54 11.1097C1136.22 17.5542 1122.72 34.9411 1109.42 58.2168C1098.12 77.9957 1087.21 101.564 1076.22 125.315C1074.33 129.397 1072.44 133.484 1070.55 137.558C1057.67 165.232 1044.56 192.321 1030.59 212.49C1016.69 232.572 1001.46 246.5 984.25 246.5C965.512 246.5 948.45 237.155 932.083 223.718C918.849 212.854 905.865 199.132 892.707 185.227C889.63 181.975 886.544 178.714 883.442 175.476C850.481 141.067 815.62 109.192 769.943 115.282C753.328 117.498 734.34 131.242 713.754 151.403C694.599 170.162 674.436 194.085 653.939 218.405C652.494 220.119 651.048 221.835 649.601 223.551C627.665 249.557 605.41 275.621 583.87 295.572C562.396 315.461 541.244 329.654 521.506 331.294C508.796 332.35 489.356 326.747 466.796 318.258C448.576 311.402 428.013 302.536 406.838 293.407C401.653 291.171 396.431 288.92 391.198 286.678C364.552 275.264 337.59 264.094 313.459 256.435C289.24 248.748 268.23 244.72 253.354 247.271C230.565 251.177 208.23 262.393 171.51 293.014C134.748 323.67 83.7971 373.575 3.7788 454.593L0.554443 450.008C80.5362 369.026 131.668 318.931 168.657 288.087C205.686 257.208 228.768 245.424 252.646 241.331C268.603 238.595 290.467 242.931 314.737 250.634C339.094 258.366 366.235 269.615 392.879 281.028C398.141 283.281 403.382 285.541 408.579 287.782C429.744 296.907 450.18 305.718 468.292 312.533C490.971 321.066 509.533 326.274 521.161 325.308C539.339 323.797 559.489 310.574 580.815 290.822C602.074 271.132 624.116 245.33 646.087 219.283C647.549 217.549 649.012 215.814 650.473 214.08C670.916 189.823 691.244 165.704 710.592 146.754C731.243 126.53 751.214 111.743 769.391 109.319C817.463 102.909 853.852 136.634 886.724 170.949C889.885 174.249 893.012 177.553 896.114 180.831C909.255 194.716 921.95 208.129 934.906 218.766C950.883 231.883 966.947 240.5 984.25 240.5C999.12 240.5 1013.06 228.427 1026.75 208.656C1040.37 188.974 1053.28 162.36 1066.18 134.633C1068.06 130.587 1069.95 126.518 1071.83 122.446C1082.81 98.7128 1093.85 74.8565 1105.29 54.8238C1118.65 31.4507 1132.9 12.6409 1148.79 5.49168C1170.87 -4.44444 1193.54 1.32659 1202.26 5.51524L1200.4 11.0861Z" fill="#FF760E"/>
</svg>
