<svg width="1920" height="455" viewBox="0 0 1920 455" fill="none" xmlns="http://www.w3.org/2000/svg">
<path fill-rule="evenodd" clip-rule="evenodd" d="M1919.14 11.1709C1906.18 7.2873 1871.55 1.78623 1838.09 11.1853C1814.73 17.7465 1792.97 35.3216 1771.74 58.5101C1753.65 78.278 1736.19 101.83 1718.6 125.563C1715.57 129.643 1712.54 133.728 1709.51 137.8C1688.88 165.465 1667.89 192.526 1645.56 212.663C1623.22 232.8 1599.18 246.339 1572.43 246.339C1542.93 246.339 1515.93 237.158 1489.79 223.766C1468.66 212.94 1447.94 199.268 1426.87 185.374C1421.94 182.121 1416.99 178.856 1412.01 175.612C1359.36 141.305 1303.07 109.062 1229.1 115.217C1201.98 117.474 1171.29 131.415 1138.36 151.541C1107.66 170.31 1075.35 194.238 1042.54 218.534C1040.22 220.249 1037.91 221.966 1035.59 223.682C1000.45 249.678 964.861 275.695 930.428 295.6C896.035 315.483 862.471 329.468 831.399 331.079C811.429 332.115 780.606 326.602 744.435 318.107C715.298 311.264 682.414 302.415 648.514 293.292C640.209 291.057 631.842 288.806 623.454 286.563C580.792 275.157 537.565 263.979 498.854 256.31C460.067 248.625 426.129 244.533 401.932 247.122C365.075 251.066 329.088 262.39 270.239 293.019C211.328 323.681 129.712 373.578 1.60276 454.536L-1.60254 449.464C126.467 368.531 208.297 318.494 267.468 287.697C326.701 256.868 363.431 245.207 401.293 241.156C426.463 238.463 461.172 242.728 500.02 250.424C538.944 258.136 582.342 269.361 625.004 280.767C633.419 283.017 641.804 285.273 650.121 287.511C684.012 296.631 716.773 305.447 745.807 312.266C782.07 320.782 812.093 326.072 831.089 325.087C860.726 323.55 893.291 310.138 927.425 290.406C961.519 270.697 996.849 244.882 1032.02 218.859C1034.36 217.128 1036.7 215.396 1039.03 213.665C1071.77 189.417 1104.29 165.335 1135.24 146.421C1168.34 126.189 1200.02 111.616 1228.6 109.238C1304.74 102.902 1362.53 136.214 1415.29 170.585C1420.33 173.875 1425.33 177.171 1430.29 180.443C1451.34 194.322 1471.72 207.765 1492.53 218.426C1518.18 231.57 1544.22 240.339 1572.43 240.339C1597.04 240.339 1619.7 227.894 1641.54 208.206C1663.38 188.518 1684.05 161.912 1704.7 134.213C1707.71 130.171 1710.73 126.105 1713.74 122.035C1731.32 98.3169 1748.99 74.4759 1767.32 54.4587C1788.77 31.0297 1811.46 12.4322 1836.46 5.40881C1871.31 -4.37928 1907.14 1.31216 1920.86 5.42325L1919.14 11.1709Z" fill="#FF760E"/>
</svg>
