<svg width="17" height="16" viewBox="0 0 17 16" fill="none" xmlns="http://www.w3.org/2000/svg">
<path d="M6.89716 13.3673L7.09494 10.5299L14.3249 4.34911L14.3249 4.34915L14.3301 4.34464C14.356 4.32182 14.3852 4.2948 14.4123 4.2654L14.4138 4.26378C14.4297 4.24673 14.4939 4.17755 14.532 4.07575C14.5518 4.02287 14.599 3.87105 14.5238 3.69595C14.4385 3.49699 14.2669 3.42493 14.1751 3.40308C14.0895 3.38273 14.0189 3.38943 13.99 3.39286C13.9542 3.39712 13.9244 3.40419 13.9048 3.40941C13.7932 3.43922 13.6451 3.5147 13.5393 3.57039C13.2945 3.69928 12.9623 3.89485 12.74 4.04165L4.37919 8.68763L0.760114 7.55762C0.75989 7.55755 0.759666 7.55747 0.759442 7.5574C0.674411 7.53055 0.61188 7.50309 0.567261 7.47906C0.643418 7.41983 0.77021 7.34563 0.96558 7.26929C0.965901 7.26916 0.966222 7.26903 0.966544 7.26891L15.9029 1.50731C16.1279 1.42759 16.2302 1.48786 16.2619 1.51869C16.2997 1.55555 16.4086 1.71559 16.3148 2.15319L16.2578 2.41926L16.2593 2.42072L13.7725 14.1422C13.7724 14.1428 13.7722 14.1435 13.7721 14.1441C13.692 14.5045 13.5759 14.5793 13.5489 14.5915C13.5243 14.6027 13.4084 14.6361 13.1319 14.485L9.28242 11.6471L8.94275 11.3967L8.63883 11.6894L6.89716 13.3673ZM0.489004 7.55604C0.488973 7.55603 0.489225 7.55552 0.489854 7.55449L0.489004 7.55604Z" fill="white" stroke="white"/>
</svg>
