<svg width="20" height="20" viewBox="0 0 20 20" fill="none" xmlns="http://www.w3.org/2000/svg">
<path d="M14.8341 10.3284L10.859 2.7818C10.7709 2.6145 10.6453 2.47581 10.4946 2.37947C10.3439 2.28312 10.1733 2.23244 9.99971 2.23244C9.82613 2.23244 9.65555 2.28312 9.50484 2.37947C9.35413 2.47581 9.2285 2.6145 9.14037 2.7818L7.11745 6.62431C7.31894 8.83295 8.05809 9.73024 9.49847 9.73024C11.4984 9.73024 13.3049 9.92666 14.8351 10.3284H14.8341ZM16.3852 13.2714C14.842 12.4154 12.4181 11.9623 9.49747 11.9623C7.68303 11.9623 6.39527 11.0338 5.69403 9.324L2.13298 16.0849C2.0436 16.2545 1.9959 16.4475 1.99471 16.6443C1.99351 16.8412 2.03887 17.0348 2.12618 17.2057C2.21349 17.3766 2.33964 17.5187 2.49185 17.6174C2.64405 17.7161 2.81688 17.7681 2.99282 17.7679H17.0076C17.1834 17.7679 17.3561 17.7158 17.5082 17.617C17.6603 17.5182 17.7863 17.3761 17.8735 17.2053C17.9607 17.0344 18.0059 16.8408 18.0047 16.644C18.0035 16.4473 17.9558 16.2544 17.8664 16.0849L16.3852 13.2725V13.2714ZM12.5777 1.64791L19.5851 14.9511C19.8532 15.4595 19.9963 16.0383 19.9999 16.6286C20.0036 17.2189 19.8677 17.7999 19.606 18.3125C19.3443 18.8251 18.9661 19.2512 18.5098 19.5475C18.0535 19.8439 17.5352 20 17.0076 20H2.99282C2.46525 20.0001 1.94704 19.8441 1.49071 19.5479C1.03439 19.2516 0.656166 18.8257 0.394386 18.3132C0.132605 17.8008 -0.00343117 17.22 6.57561e-05 16.6297C0.00356268 16.0394 0.146468 15.4607 0.414298 14.9522L7.42169 1.64903C7.68603 1.14684 8.06296 0.730562 8.51519 0.441346C8.96743 0.15213 9.4793 0 10.0002 0C10.5211 0 11.033 0.15213 11.4852 0.441346C11.9375 0.730562 12.3144 1.14684 12.5787 1.64903L12.5777 1.64791Z" fill="black"/>
</svg>
