<svg width="20" height="20" viewBox="0 0 20 20" fill="none" xmlns="http://www.w3.org/2000/svg">
<path d="M3.996 5.71429C5.409 5.71429 6.156 4.64714 6.701 3.86714C7.191 3.16714 7.432 2.85714 7.993 2.85714C8.554 2.85714 8.795 3.16714 9.285 3.86714C9.83 4.64714 10.577 5.71429 11.991 5.71429C13.406 5.71429 14.154 4.64714 14.701 3.86714C15.192 3.16714 15.433 2.85714 15.996 2.85714C16.559 2.85714 16.8 3.16714 17.291 3.86714C17.837 4.64714 18.585 5.71429 20 5.71429V2.85714C19.437 2.85714 19.196 2.54714 18.705 1.84714C18.159 1.06714 17.411 0 15.996 0C14.581 0 13.834 1.06714 13.287 1.84571C12.796 2.54714 12.556 2.85714 11.991 2.85714C11.429 2.85714 11.189 2.54714 10.699 1.84714C10.154 1.06714 9.407 0 7.993 0C6.579 0 5.832 1.06714 5.287 1.84714C4.797 2.54714 4.557 2.85714 3.996 2.85714C3.435 2.85714 3.195 2.54714 2.705 1.84714C2.16 1.06714 1.413 0 0 0V2.85714C0.561 2.85714 0.801 3.16714 1.291 3.86714C1.836 4.64714 2.583 5.71429 3.996 5.71429ZM3.996 12.8571C5.409 12.8571 6.156 11.79 6.701 11.01C7.191 10.31 7.432 10 7.993 10C8.554 10 8.795 10.31 9.285 11.01C9.83 11.79 10.577 12.8571 11.991 12.8571C13.406 12.8571 14.154 11.79 14.701 11.01C15.192 10.31 15.433 10 15.996 10C16.559 10 16.8 10.31 17.291 11.01C17.837 11.79 18.585 12.8571 20 12.8571V10C19.437 10 19.196 9.69 18.705 8.99C18.159 8.21 17.411 7.14286 15.996 7.14286C14.581 7.14286 13.834 8.21 13.287 8.98857C12.796 9.69 12.556 10 11.991 10C11.429 10 11.189 9.69 10.699 8.99C10.154 8.21 9.407 7.14286 7.993 7.14286C6.579 7.14286 5.832 8.21 5.287 8.99C4.797 9.69 4.557 10 3.996 10C3.435 10 3.195 9.69 2.705 8.99C2.16 8.21 1.413 7.14286 0 7.14286V10C0.561 10 0.801 10.31 1.291 11.01C1.836 11.79 2.583 12.8571 3.996 12.8571ZM3.996 20C5.409 20 6.156 18.9329 6.701 18.1529C7.191 17.4529 7.432 17.1429 7.993 17.1429C8.554 17.1429 8.795 17.4529 9.285 18.1529C9.83 18.9329 10.577 20 11.991 20C13.406 20 14.154 18.9329 14.701 18.1529C15.192 17.4529 15.433 17.1429 15.996 17.1429C16.559 17.1429 16.8 17.4529 17.291 18.1529C17.837 18.9329 18.585 20 20 20V17.1429C19.437 17.1429 19.196 16.8329 18.705 16.1329C18.159 15.3529 17.411 14.2857 15.996 14.2857C14.581 14.2857 13.834 15.3529 13.287 16.1314C12.796 16.8329 12.556 17.1429 11.991 17.1429C11.429 17.1429 11.189 16.8329 10.699 16.1329C10.154 15.3529 9.407 14.2857 7.993 14.2857C6.579 14.2857 5.832 15.3529 5.287 16.1329C4.797 16.8329 4.557 17.1429 3.996 17.1429C3.435 17.1429 3.195 16.8329 2.705 16.1329C2.16 15.3529 1.413 14.2857 0 14.2857V17.1429C0.561 17.1429 0.801 17.4529 1.291 18.1529C1.836 18.9329 2.583 20 3.996 20Z" fill="black"/>
</svg>
