<svg width="13" height="20" viewBox="0 0 13 20" fill="none" xmlns="http://www.w3.org/2000/svg">
<path d="M0.714286 0C0.903726 0 1.08541 0.0752549 1.21936 0.209209C1.35332 0.343164 1.42857 0.524845 1.42857 0.714286V5C1.42834 5.44332 1.56561 5.87581 1.82147 6.23784C2.07733 6.59988 2.43917 6.87365 2.85714 7.02143V0.714286C2.85714 0.524845 2.9324 0.343164 3.06635 0.209209C3.20031 0.0752549 3.38199 0 3.57143 0C3.76087 0 3.94255 0.0752549 4.0765 0.209209C4.21046 0.343164 4.28571 0.524845 4.28571 0.714286V7.02143C4.70368 6.87365 5.06553 6.59988 5.32139 6.23784C5.57725 5.87581 5.71452 5.44332 5.71429 5V0.714286C5.71429 0.524845 5.78954 0.343164 5.92349 0.209209C6.05745 0.0752549 6.23913 0 6.42857 0C6.61801 0 6.79969 0.0752549 6.93365 0.209209C7.0676 0.343164 7.14286 0.524845 7.14286 0.714286V5C7.14302 5.82332 6.85873 6.62142 6.33808 7.25922C5.81743 7.89701 5.0924 8.33534 4.28571 8.5V19.2857C4.28571 19.4752 4.21046 19.6568 4.0765 19.7908C3.94255 19.9247 3.76087 20 3.57143 20C3.38199 20 3.20031 19.9247 3.06635 19.7908C2.9324 19.6568 2.85714 19.4752 2.85714 19.2857V8.5C2.05045 8.33534 1.32543 7.89701 0.804781 7.25922C0.284131 6.62142 -0.000167965 5.82332 7.44488e-08 5V0.714286C7.44488e-08 0.524845 0.0752551 0.343164 0.20921 0.209209C0.343164 0.0752549 0.524845 0 0.714286 0ZM10.6843 2.11286C10.9114 1.88429 11.1671 1.70857 11.4286 1.59286V8.57143H10V3.57143C10 3.09 10.2486 2.54714 10.6843 2.11286ZM11.4286 10V19.2857C11.4286 19.4752 11.5038 19.6568 11.6378 19.7908C11.7717 19.9247 11.9534 20 12.1429 20C12.3323 20 12.514 19.9247 12.6479 19.7908C12.7819 19.6568 12.8571 19.4752 12.8571 19.2857V0.714286C12.8571 0.524845 12.7819 0.343164 12.6479 0.209209C12.514 0.0752549 12.3323 0 12.1429 0C11.1957 0 10.31 0.465714 9.67286 1.10143C9.03714 1.73857 8.57143 2.62429 8.57143 3.57143V9.28571C8.57143 9.47515 8.64668 9.65684 8.78064 9.79079C8.91459 9.92475 9.09627 10 9.28571 10H11.4286Z" fill="black"/>
</svg>
