<svg width="744" height="262" viewBox="0 0 744 262" fill="none" xmlns="http://www.w3.org/2000/svg">
<path fill-rule="evenodd" clip-rule="evenodd" d="M675.713 128.786C665.155 138.656 653.114 145 639 145C611.906 145 585.696 132.772 565.201 119.718C547.609 108.514 533.927 96.4965 527.285 90.6626C526.174 89.6864 525.259 88.8833 524.557 88.2861C523.143 87.0839 521.317 85.1639 519.221 82.8823C518.224 81.7969 517.215 80.6838 516.139 79.4969C514.792 78.0115 513.34 76.4103 511.676 74.6026C505.901 68.3309 498.692 60.8156 490.347 53.5793C473.564 39.0263 452.64 26.0003 430 26.0003C424.828 26.0003 418.787 28.0929 411.928 32.1373C405.102 36.1617 397.714 41.9699 389.906 49.0507C374.28 63.2208 357.329 82.1534 340.235 101.251L340.158 101.338C323.152 120.336 306.006 139.493 290.125 153.894C282.167 161.11 274.438 167.216 267.119 171.532C259.834 175.827 252.703 178.5 246 178.5C233.623 178.5 219.279 174.965 204.255 169.823C189.196 164.669 173.199 157.809 157.494 151.003C156.536 150.588 155.579 150.172 154.623 149.758C139.867 143.358 125.437 137.1 112.166 132.34C97.9853 127.252 85.4555 124 75.4998 124C67.2484 124 58.8736 130.115 50.5722 141.091C42.3786 151.925 34.8201 166.754 28.0712 182.554C21.3358 198.321 15.4746 214.891 10.6288 229.123C9.44506 232.6 8.31795 235.95 7.25138 239.121C3.98435 248.831 1.28528 256.854 -0.734221 261.662L-6.26611 259.339C-4.33918 254.751 -1.7499 247.056 1.4864 237.438C2.56845 234.222 3.72284 230.791 4.94898 227.19C9.80636 212.923 15.7263 196.179 22.5535 180.197C29.3671 164.246 37.1523 148.888 45.7868 137.472C54.3136 126.198 64.2513 118 75.4998 118C86.5442 118 99.8894 121.561 114.193 126.692C127.655 131.522 142.256 137.854 156.956 144.23C157.931 144.652 158.905 145.075 159.88 145.498C175.613 152.316 191.398 159.081 206.198 164.146C221.033 169.223 234.626 172.5 246 172.5C251.172 172.5 257.212 170.408 264.072 166.363C270.897 162.339 278.286 156.531 286.094 149.45C301.72 135.28 318.67 116.347 335.764 97.2495L335.842 97.163C352.848 78.164 369.994 59.008 385.875 44.6061C393.833 37.3901 401.561 31.2842 408.88 26.9688C416.166 22.6733 423.297 20.0003 430 20.0003C454.86 20.0003 477.185 34.2243 494.278 49.0463C502.87 56.4975 510.255 64.2009 516.09 70.5386C517.673 72.2588 519.239 73.9841 520.659 75.5498C521.759 76.7623 522.772 77.879 523.64 78.8233C525.776 81.1491 527.357 82.7917 528.443 83.7145C529.188 84.3479 530.14 85.1839 531.286 86.1896C537.979 92.0647 551.27 103.732 568.424 114.657C588.553 127.478 613.594 139 639 139C651.135 139 661.782 133.595 671.615 124.403C681.487 115.173 690.359 102.288 698.846 87.7387C704.839 77.4644 710.56 66.5086 716.284 55.5448C718.672 50.9723 721.06 46.3985 723.469 41.8721C731.607 26.5801 739.962 11.8759 749.137 0.151367L753.862 3.84922C745.038 15.1247 736.892 29.4205 728.765 44.691C726.406 49.124 724.046 53.6436 721.674 58.1869C715.922 69.2038 710.096 80.3604 704.029 90.7619C695.453 105.463 686.231 118.952 675.713 128.786Z" fill="#FF760E"/>
</svg>
