<svg width="24" height="16" viewBox="0 0 24 16" fill="none" xmlns="http://www.w3.org/2000/svg">
<path d="M4.53127 10.235L4.5313 10.2349L4.52806 10.2303C2.93254 7.95596 1.92089 5.96502 1.30963 4.46421C1.00389 3.71353 0.799189 3.0876 0.671685 2.61216C0.54039 2.12258 0.5 1.82558 0.5 1.71865C0.5 1.57227 0.53006 1.54047 0.531568 1.53888L0.531589 1.53886L0.531651 1.53879C0.533311 1.53702 0.548031 1.52132 0.598445 1.50451C0.653018 1.48632 0.745952 1.46826 0.894597 1.46826H3.50378C3.75873 1.46826 3.84769 1.52244 3.9022 1.57348C3.98315 1.64928 4.07657 1.80366 4.19798 2.16028C4.84788 4.08537 5.72097 5.89132 6.55001 7.22363C6.96363 7.88834 7.375 8.44925 7.75171 8.85072C7.93953 9.05089 8.13014 9.22375 8.31878 9.35003C8.49788 9.46992 8.72816 9.58387 8.98383 9.58387C9.09932 9.58387 9.25332 9.57158 9.40788 9.50065C9.57622 9.42341 9.70299 9.29654 9.78919 9.13834C9.93634 8.86829 9.96769 8.49545 9.96769 8.07186V4.16435V4.15089L9.96697 4.13746C9.91291 3.13368 9.61641 2.55594 9.31818 2.14347C9.25288 2.05316 9.18867 1.97234 9.13539 1.90528C9.13188 1.90086 9.12842 1.89651 9.12501 1.89221C9.06663 1.81868 9.02561 1.76621 8.99287 1.71803C8.933 1.62994 8.93096 1.59916 8.93096 1.57817C8.93096 1.56685 8.93749 1.53926 8.96289 1.51359C8.98264 1.49363 9.02044 1.46826 9.09488 1.46826H13.1951C13.2907 1.46826 13.3384 1.48163 13.3574 1.48934C13.3687 1.49391 13.3701 1.49597 13.3717 1.49824C13.3719 1.49851 13.3721 1.49879 13.3723 1.49907C13.3903 1.5236 13.4405 1.629 13.4405 1.94366V7.2004C13.4405 7.84249 13.7426 8.45935 14.3464 8.45935C14.6336 8.45935 14.8816 8.36691 15.1315 8.1975C15.3632 8.04042 15.6147 7.8044 15.9193 7.49474L15.929 7.48484L15.9382 7.47441C16.9171 6.36174 17.7405 4.96425 18.3145 3.86097C18.603 3.30631 18.8317 2.81967 18.9885 2.4711C19.067 2.29672 19.1276 2.15662 19.1688 2.05953C19.1894 2.01098 19.2052 1.97316 19.2159 1.94717L19.2283 1.91717L19.2312 1.91C19.2933 1.7636 19.3665 1.66031 19.4549 1.59238C19.537 1.5293 19.6686 1.46826 19.9044 1.46826H22.5136C22.7549 1.46826 22.8355 1.51523 22.854 1.52952C22.8589 1.54461 22.8775 1.61781 22.8231 1.80222L22.8178 1.82032L22.8138 1.83876C22.7473 2.14874 22.5188 2.6673 22.1733 3.31319C21.8364 3.94309 21.4147 4.64635 20.9995 5.30758C20.585 5.96777 20.1803 6.58079 19.879 7.02908C19.7284 7.25309 19.6039 7.43565 19.5171 7.56202C19.4737 7.62519 19.4398 7.67431 19.4168 7.70751L19.3907 7.74515L19.3841 7.75459L19.3825 7.75688L19.3821 7.75742L19.3821 7.75753L19.792 8.04373L19.382 7.75754L19.3737 7.76948L19.3661 7.78189L19.3567 7.79713C19.2333 7.99768 19.0691 8.26458 19.0448 8.57375C19.017 8.92757 19.1693 9.23129 19.3891 9.52046C19.5531 9.75071 19.8652 10.0615 20.1678 10.3627C20.1829 10.3778 20.1981 10.3929 20.2132 10.4079C20.5552 10.7486 20.918 11.1115 21.2045 11.4558L21.2044 11.4559L21.2124 11.465C21.7696 12.1025 22.2494 12.6802 22.6168 13.1859C22.988 13.6968 23.2172 14.0978 23.3108 14.3898C23.3912 14.6739 23.3255 14.7559 23.3167 14.7663C23.2947 14.7922 23.1941 14.8726 22.8863 14.8726H20.2772C20.1039 14.8726 19.9808 14.8393 19.8637 14.777C19.7354 14.7087 19.5924 14.5938 19.3965 14.394C19.2371 14.2315 19.063 14.0346 18.8449 13.7879C18.7924 13.7285 18.7373 13.6661 18.6792 13.6007C18.3849 13.2691 18.0286 12.8742 17.5778 12.4158L17.5779 12.4157L17.5714 12.4094C16.0155 10.8837 15.2251 10.5516 14.6229 10.5516C14.3498 10.5516 13.955 10.5803 13.6927 10.9117C13.5723 11.0639 13.5136 11.24 13.4821 11.4058C13.4507 11.5714 13.4406 11.7588 13.4406 11.961V14.3406C13.4406 14.6258 13.3933 14.6581 13.3491 14.6883L13.349 14.6883C13.229 14.7702 12.9055 14.8726 12.0769 14.8726C9.51538 14.8726 6.6178 13.2818 4.53127 10.235ZM22.8585 1.5336C22.8584 1.53363 22.8579 1.53313 22.8569 1.53199C22.858 1.533 22.8585 1.53357 22.8585 1.5336Z" fill="white" stroke="white"/>
</svg>
