<svg width="22" height="22" viewBox="0 0 22 22" fill="none" xmlns="http://www.w3.org/2000/svg">
<path fill-rule="evenodd" clip-rule="evenodd" d="M7.41437 6.33418C8.22597 7.48254 8.81592 8.98164 9.06816 10.4183C9.31519 11.8271 9.25639 13.1344 8.61668 14.1624C7.95223 15.2301 6.81508 15.7593 5.45309 15.9319C3.91279 16.1271 2.64095 15.7923 1.70826 14.8523C0.831667 13.9689 0.399063 12.6882 0.158318 11.3153C-0.1773 9.40047 0.0276024 7.72924 0.707578 6.47268C1.40006 5.19301 2.571 4.38812 3.97695 4.29222C5.45594 4.19156 6.63811 5.23581 7.41437 6.33418ZM5.7811 7.48848C5.05006 6.55816 4.69562 6.32318 4.11305 6.28759C3.31163 6.38266 2.96361 6.66833 2.46655 7.42453C2.21423 8.0059 2.08611 8.3427 2.01747 9.09961C1.98943 9.78949 1.98701 10.1848 2.12827 10.9699C2.34641 12.2139 2.68676 12.999 3.12793 13.4436C3.51302 13.8317 4.10377 14.0869 5.20162 13.9478C6.21371 13.8195 6.68394 13.4828 6.91862 13.1057C7.17803 12.6889 7.31005 11.972 7.09826 10.7639C6.73428 9.07209 6.3847 8.55068 5.7811 7.48848Z" fill="black"/>
<path fill-rule="evenodd" clip-rule="evenodd" d="M18.0171 0.0056929C16.5371 -0.0863117 15.3573 0.951592 14.5804 2.05212C13.77 3.19987 13.1839 4.69673 12.9319 6.13237C12.6849 7.54116 12.7437 8.84825 13.3833 9.87622C14.0477 10.9439 15.1847 11.4732 16.5465 11.6458C18.087 11.841 19.3589 11.5061 20.2915 10.5661C21.1681 9.68272 21.6005 8.40199 21.8412 7.02913C22.1772 5.11404 21.9722 3.44003 21.2925 2.18223C20.6004 0.901301 19.4279 0.0934086 18.0171 0.0056929ZM14.9018 6.47798C14.69 7.68603 14.822 8.40276 15.0814 8.81963C15.3161 9.19675 15.7862 9.53339 16.7979 9.66165C17.8961 9.80082 18.4868 9.54549 18.8718 9.15748C19.3129 8.7129 19.6532 7.9278 19.8713 6.6837C20.1531 5.07696 19.9414 3.88889 19.533 3.13298C19.137 2.40021 18.5501 2.0427 17.893 2.00184C17.4772 1.976 16.8675 2.28028 16.2142 3.20562C15.5943 4.08371 15.1092 5.29673 14.9018 6.47798Z" fill="black"/>
<path fill-rule="evenodd" clip-rule="evenodd" d="M15.2849 11.568C15.1584 11.5412 15.0271 11.5133 14.8844 11.485C14.5308 11.4148 14.1025 11.3413 13.6881 11.3619C13.2512 11.3837 12.7346 11.5153 12.32 11.9428C11.9237 12.3516 11.7528 12.8967 11.691 13.4593C11.4784 15.3966 12.6997 17.3272 14.7073 17.6645C16.6055 17.9827 18.7773 16.7354 19.2381 14.7035C19.3497 14.2117 19.3603 13.6967 19.1506 13.2179C18.9352 12.7262 18.5543 12.4238 18.1823 12.2366C17.8269 12.0577 17.4292 11.9578 17.0755 11.8872C16.8222 11.8366 16.5386 11.7919 16.2673 11.749C16.1622 11.7325 16.059 11.7162 15.9601 11.6999C15.7244 11.6613 15.5123 11.6163 15.2849 11.568ZM13.679 13.6776C13.5657 14.7107 14.2186 15.5541 15.038 15.692C15.994 15.8521 17.084 15.1593 17.2877 14.2611C17.3132 14.1485 17.3174 14.0788 17.3166 14.0412C17.3079 14.036 17.2969 14.03 17.2831 14.0231C17.1734 13.9678 16.9889 13.9093 16.6841 13.8485C16.4725 13.8063 16.2525 13.7716 16.0001 13.7318C15.8861 13.7138 15.7656 13.6948 15.6363 13.6736C15.3577 13.6278 15.0614 13.5652 14.8067 13.5114C14.6927 13.4873 14.5871 13.465 14.495 13.4467C14.1512 13.3785 13.9344 13.3521 13.7876 13.3594C13.7711 13.3603 13.7574 13.3614 13.7463 13.3627C13.7273 13.4094 13.698 13.5048 13.679 13.6776Z" fill="black"/>
<path fill-rule="evenodd" clip-rule="evenodd" d="M10.3091 17.7449C10.2473 17.1824 10.0764 16.6373 9.67988 16.2287C9.26522 15.8013 8.74859 15.6698 8.31177 15.6482C7.89749 15.6276 7.46921 15.7012 7.11572 15.7713C6.97351 15.7995 6.84266 15.8273 6.71655 15.854C6.48864 15.9023 6.27622 15.9474 6.04027 15.986C5.94157 16.0022 5.83859 16.0184 5.73378 16.0349C5.4622 16.0777 5.17832 16.1225 4.92473 16.173C4.57104 16.2436 4.17329 16.3434 3.81783 16.5223C3.44587 16.7095 3.06491 17.0119 2.84952 17.5036C2.63979 17.9824 2.65041 18.4974 2.76194 18.9892C3.22281 21.0211 5.39493 22.2684 7.29314 21.9501C9.30068 21.6128 10.5217 19.6827 10.3091 17.7449ZM7.19434 17.7975L7.50507 17.733L8.21265 17.6457L8.25395 17.6489C8.27288 17.6956 8.30209 17.7908 8.32104 17.9633C8.43438 18.9968 7.78126 19.8399 6.96176 19.9778C6.00573 20.1379 4.91613 19.445 4.7124 18.5468C4.68687 18.4342 4.68269 18.3646 4.6835 18.3269C4.69218 18.3218 4.70316 18.3157 4.71686 18.3088C4.82659 18.2536 5.01106 18.1952 5.31582 18.1344C5.52755 18.0922 5.74787 18.0575 6.00058 18.0177L6.00212 18.0175C6.11536 17.9996 6.2351 17.9808 6.3635 17.9597C6.64273 17.914 6.93933 17.8514 7.19434 17.7975Z" fill="black"/>
</svg>
